<svg width="96" height="96" viewBox="0 0 96 96" fill="none" xmlns="http://www.w3.org/2000/svg">
  <circle cx="48" cy="48" r="44" fill="#ffffff"/>
  <path d="M48 48L22 11.5C29.2 7.2 37.1 5 48 5C66.5 5 82.2 15.5 89 31H48V48Z" fill="#EA4335"/>
  <path d="M48 48H89C89.2 49.6 89.3 51 89.3 52.8C89.3 76.2 71 91 48 91C40.9 91 34.2 89.8 28.4 87L48 48Z" fill="#FBBC05"/>
  <path d="M48 48L28.4 87C14.7 80.4 6 66.3 6 48C6 35.1 10.3 24.3 22 11.5L48 48Z" fill="#34A853"/>
  <circle cx="48" cy="48" r="17" fill="#4285F4"/>
  <circle cx="48" cy="48" r="8.2" fill="#D9E8FF"/>
</svg>
