<svg width="96" height="96" viewBox="0 0 96 96" fill="none" xmlns="http://www.w3.org/2000/svg">
  <rect x="10" y="10" width="76" height="76" rx="24" fill="#ffffff"/>
  <path d="M39.5 18C39.5 13.3 35.7 9.5 31 9.5C26.3 9.5 22.5 13.3 22.5 18V39.5C22.5 44.2 26.3 48 31 48C35.7 48 39.5 44.2 39.5 39.5V18Z" fill="#E01E5A"/>
  <path d="M48 31C48 26.3 44.2 22.5 39.5 22.5H18C13.3 22.5 9.5 26.3 9.5 31C9.5 35.7 13.3 39.5 18 39.5H39.5C44.2 39.5 48 35.7 48 31Z" fill="#E01E5A"/>
  <path d="M57 18C57 13.3 60.8 9.5 65.5 9.5C70.2 9.5 74 13.3 74 18V39.5C74 44.2 70.2 48 65.5 48C60.8 48 57 44.2 57 39.5V18Z" fill="#36C5F0"/>
  <path d="M48 65.5C48 60.8 51.8 57 56.5 57H78C82.7 57 86.5 60.8 86.5 65.5C86.5 70.2 82.7 74 78 74H56.5C51.8 74 48 70.2 48 65.5Z" fill="#36C5F0"/>
  <path d="M18 57C13.3 57 9.5 60.8 9.5 65.5C9.5 70.2 13.3 74 18 74H39.5C44.2 74 48 70.2 48 65.5V44C48 39.3 44.2 35.5 39.5 35.5C34.8 35.5 31 39.3 31 44V57H18Z" fill="#2EB67D"/>
  <path d="M78 48C82.7 48 86.5 44.2 86.5 39.5C86.5 34.8 82.7 31 78 31H56.5C51.8 31 48 34.8 48 39.5V61C48 65.7 51.8 69.5 56.5 69.5C61.2 69.5 65 65.7 65 61V48H78Z" fill="#ECB22E"/>
</svg>
